<svg width="502" height="214" viewBox="0 0 502 214" fill="none" xmlns="http://www.w3.org/2000/svg">
<path d="M181.451 71.7974V58H250.869V71.7974H224.074V153.467H208.524V71.7974H181.451Z" fill="white"/>
<path d="M293.39 140.924L297.278 140.506L297.555 151.795C287.004 153.932 277.655 155 269.51 155C259.236 155 251.832 152.166 247.297 146.499C242.854 140.831 240.632 131.772 240.632 119.322C240.632 94.6073 250.675 82.25 270.76 82.25C290.197 82.25 299.916 92.8884 299.916 114.165L298.944 125.036H255.904C255.997 130.796 257.246 135.024 259.653 137.718C262.059 140.413 266.549 141.76 273.12 141.76C279.692 141.76 286.448 141.481 293.39 140.924ZM285.06 113.329C285.06 106.454 283.949 101.669 281.728 98.9741C279.599 96.1868 275.943 94.7931 270.76 94.7931C265.577 94.7931 261.782 96.2332 259.375 99.1135C257.061 101.994 255.858 106.732 255.766 113.329H285.06Z" fill="white"/>
<path d="M307.526 153.467V83.7831H322.52V92.1451C330.387 87.035 338.255 83.7366 346.122 82.25V97.4411C338.162 99.0206 331.359 101.065 325.713 103.573L322.659 104.828V153.467H307.526Z" fill="white"/>
<path d="M350.749 153.467V83.7831H365.744V92.1451C373.611 87.035 381.478 83.7366 389.346 82.25V97.4411C381.386 99.0206 374.583 101.065 368.937 103.573L365.882 104.828V153.467H350.749Z" fill="white"/>
<path d="M445.342 105.246V137.022C445.435 139.066 445.944 140.599 446.87 141.621C447.888 142.55 449.415 143.154 451.451 143.432L451.035 155C443.075 155 436.92 153.281 432.569 149.843C425.165 153.281 417.714 155 410.217 155C396.426 155 389.53 147.614 389.53 132.841C389.53 125.779 391.381 120.669 395.084 117.51C398.878 114.351 404.663 112.446 412.438 111.796L430.348 110.263V105.246C430.348 101.529 429.515 98.9277 427.849 97.4411C426.275 95.9545 423.915 95.2112 420.768 95.2112C414.845 95.2112 407.44 95.5829 398.554 96.3262L394.112 96.6049L393.556 85.8736C403.645 83.4579 412.901 82.25 421.324 82.25C429.839 82.25 435.948 84.1082 439.65 87.8247C443.445 91.4483 445.342 97.2553 445.342 105.246ZM414.243 122.527C407.857 123.085 404.663 126.569 404.663 132.98C404.663 139.391 407.486 142.596 413.132 142.596C417.76 142.596 422.666 141.853 427.849 140.366L430.348 139.53V120.994L414.243 122.527Z" fill="white"/>
<path fill-rule="evenodd" clip-rule="evenodd" d="M139.451 50C151.532 50 161.612 58.5695 163.943 69.9616C164.276 71.5891 164.451 73.2741 164.451 75V139C164.451 152.807 153.258 164 139.451 164H75.4512C72.7177 164 70.0868 163.561 67.6248 162.751C57.651 159.466 50.4512 150.074 50.4512 139V75C50.4512 61.1929 61.6441 50 75.4512 50H139.451ZM129.311 58H139.451C147.736 58 154.637 63.927 156.145 71.7722C151.334 72.3173 145.834 71.8122 140.026 69.3233C134.88 67.1175 131.466 63.031 129.311 58ZM105.574 58H120.769C123.294 65.5995 128.13 72.9286 136.875 76.6764C143.89 79.6828 150.552 80.3802 156.451 79.7944V87.9687C148.442 90.5041 140.461 91.5302 134.075 89.6611C130.903 88.7327 127.263 86.2678 123.346 82.3902C119.483 78.5657 115.628 73.6468 111.988 68.27C109.726 64.9287 107.572 61.4481 105.574 58ZM96.3865 58H85.8004C86.2829 67.0527 84.1499 78.1102 76.2153 89.312C70.9585 96.7334 64.742 100.815 58.4512 102.638V118.587C62.2418 116.285 66.7043 113.141 71.929 108.896C84.2739 98.8655 93.9971 94.8747 101.37 94.1447C108.7 93.4189 113.911 95.9616 116.206 99.1753C118.616 102.549 119.978 107.07 120.491 111.838C121.01 116.664 120.694 122.047 119.476 127.389C117.057 138.009 110.914 149.063 99.8478 155.022C99.2452 155.347 98.6371 155.673 98.0243 156H110.459C115.322 149.826 119.214 143.692 120.61 138.885C122.185 133.458 122.832 127.705 123.436 122.327L123.437 122.326L123.437 122.324C123.654 120.393 123.866 118.509 124.113 116.706C124.542 113.582 125.134 110.272 126.405 107.885C127.078 106.622 128.147 105.216 129.867 104.404C131.678 103.549 133.563 103.654 135.216 104.205C139.85 105.75 146.01 106.07 156.451 103.454V96.3185C148.399 98.5873 139.62 99.6196 131.827 97.339C126.799 95.8673 122.026 92.3406 117.718 88.0754C113.356 83.7572 109.174 78.3824 105.364 72.755C102.105 67.9414 99.0711 62.8719 96.3865 58ZM156.451 111.682C146.504 113.959 139.351 113.864 133.301 111.992C132.854 113.039 132.437 114.895 132.039 117.794C131.841 119.234 131.658 120.871 131.459 122.641L131.459 122.642C130.841 128.158 130.078 134.965 128.292 141.115C126.924 145.829 123.964 151.008 120.446 156H128.494C129.979 152.308 131.346 148.792 132.42 145.837C133.574 142.661 134.296 140.377 134.529 139.215C134.97 137.008 135.811 134.633 137.784 132.95C139.836 131.198 142.356 130.822 144.717 130.942C147.042 131.061 149.768 131.687 152.843 132.569C153.961 132.889 155.163 133.255 156.451 133.662V111.682ZM156.191 141.979C154.103 141.301 152.265 140.726 150.637 140.259C147.666 139.406 145.673 139.001 144.311 138.932C143.431 138.887 143.075 138.996 142.973 139.041C142.915 139.109 142.631 139.496 142.374 140.784C142.006 142.622 141.075 145.442 139.939 148.569C139.124 150.813 138.155 153.343 137.106 156H139.451C147.824 156 154.783 149.947 156.191 141.979ZM80.7629 156C86.0019 153.298 91.2898 150.544 96.055 147.978C104.489 143.437 109.596 134.742 111.676 125.612C112.709 121.079 112.955 116.586 112.537 112.694C112.112 108.743 111.037 105.702 109.696 103.825C109.492 103.539 107.453 101.582 102.158 102.106C96.9057 102.626 88.6289 105.635 76.9738 115.105C69.6779 121.033 63.5723 125.094 58.4512 127.779V136.801C59.7136 135.646 61.1391 134.681 62.4565 133.858C63.7986 133.019 65.261 132.194 66.6982 131.388L67.0544 131.188C68.3969 130.436 69.7294 129.689 71.0526 128.897C73.9471 127.163 76.5498 125.352 78.5511 123.245C82.0161 119.597 87.0174 115.244 91.7193 112.272C94.0389 110.805 96.544 109.508 98.9076 108.913C101.126 108.354 104.565 108.127 106.962 110.867C109.243 113.474 110.188 117.384 108.527 122.459C106.949 127.28 102.986 133.366 95.3257 141.282C87.3744 149.498 79.4228 153.614 72.719 154.926C71.9629 155.074 71.2191 155.186 70.4903 155.265C72.0597 155.743 73.7254 156 75.4512 156H80.7629ZM58.4512 94.1738C62.3271 92.5663 66.1885 89.6271 69.6871 84.6878C76.5953 74.9351 78.2647 65.4781 77.7893 58H75.4512C66.0623 58 58.4512 65.6112 58.4512 75V94.1738ZM142.965 139.045C142.946 139.054 142.938 139.06 142.939 139.06C142.94 139.061 142.944 139.059 142.951 139.054L142.956 139.051L142.965 139.045ZM95.9937 119.034C91.9652 121.58 87.4659 125.476 84.3514 128.755C81.6033 131.648 78.2687 133.9 75.1632 135.76C73.7361 136.614 72.305 137.416 70.9786 138.16L70.6112 138.366C69.1576 139.181 67.8543 139.918 66.6963 140.642C64.1993 142.202 63.1555 143.252 62.8283 143.923C62.7345 144.116 62.7233 144.226 62.7523 144.394C62.7934 144.634 62.9656 145.187 63.6507 146.1L63.7173 146.189L63.7789 146.281C63.7827 146.286 63.8728 146.411 64.1591 146.586C64.4548 146.767 64.9125 146.971 65.5626 147.131C66.8691 147.453 68.7709 147.546 71.183 147.074C75.9794 146.136 82.5281 143.002 89.5769 135.718C96.9169 128.134 99.9022 123.09 100.924 119.971C101.532 118.113 101.407 117.107 101.213 116.593C101.115 116.611 100.999 116.636 100.862 116.671C99.7068 116.962 98.0393 117.741 95.9937 119.034ZM101.643 116.555C101.641 116.558 101.617 116.558 101.577 116.55C101.624 116.549 101.645 116.553 101.643 116.555Z" fill="white"/>
</svg>
