<?xml version="1.0" encoding="UTF-8" standalone="no" ?>
<!DOCTYPE svg PUBLIC "-//W3C//DTD SVG 1.1//EN" "http://www.w3.org/Graphics/SVG/1.1/DTD/svg11.dtd">
<svg xmlns="http://www.w3.org/2000/svg" xmlns:xlink="http://www.w3.org/1999/xlink" version="1.1" width="1080" height="1080" viewBox="0 0 1080 1080" xml:space="preserve">
<desc>Created with Fabric.js 5.2.4</desc>
<defs>
</defs>
<rect x="0" y="0" width="100%" height="100%" fill="transparent"></rect>
<g transform="matrix(1 0 0 1 540 540)" id="64e139e0-dd50-4331-9d6e-6c5bae10b7ae"  >
<rect style="stroke: none; stroke-width: 1; stroke-dasharray: none; stroke-linecap: butt; stroke-dashoffset: 0; stroke-linejoin: miter; stroke-miterlimit: 4; fill: rgb(255,255,255); fill-rule: nonzero; opacity: 1; visibility: hidden;" vector-effect="non-scaling-stroke"  x="-540" y="-540" rx="0" ry="0" width="1080" height="1080" />
</g>
<g transform="matrix(1 0 0 1 540 540)" id="56646ba8-0819-4901-89e9-21c10c97c6b3"  >
</g>
<g transform="matrix(1 0 0 1 519.29 540)"  >
<g style="" vector-effect="non-scaling-stroke"   >
		<g transform="matrix(0.13 0 0 -0.13 25.42 -132.75)"  >
<path style="stroke: none; stroke-width: 1; stroke-dasharray: none; stroke-linecap: butt; stroke-dashoffset: 0; stroke-linejoin: miter; stroke-miterlimit: 4; fill: rgb(248,248,248); fill-rule: nonzero; opacity: 1;" vector-effect="non-scaling-stroke"  transform=" translate(-3098.07, -2578.52)" d="M 2770 2913 C 2770 2906 2762 2900 2752 2900 C 2729 2900 2706 2844 2726 2836 C 2747 2828 2743 2809 2720 2803 C 2703 2798 2700 2791 2703 2754 C 2705 2729 2714 2702 2722 2692 C 2731 2683 2735 2669 2733 2663 C 2730 2656 2733 2650 2739 2650 C 2745 2650 2750 2646 2750 2642 C 2750 2637 2737 2635 2721 2638 C 2699 2641 2692 2637 2687 2621 C 2680 2594 2660 2594 2653 2620 C 2645 2650 2570 2645 2570 2615 C 2570 2607 2565 2598 2558 2594 C 2551 2589 2549 2592 2553 2603 C 2562 2628 2527 2741 2506 2754 C 2492 2762 2486 2762 2483 2753 C 2476 2734 2459 2737 2433 2762 C 2413 2780 2410 2781 2410 2766 C 2410 2757 2399 2745 2386 2740 C 2370 2734 2360 2721 2356 2696 C 2348 2654 2328 2649 2294 2681 C 2270 2703 2250 2700 2250 2673 C 2250 2637 2275 2589 2296 2584 C 2317 2579 2317 2577 2303 2549 L 2288 2519 L 2239 2569 L 2191 2619 L 2108 2624 C 2062 2627 2032 2626 2040 2623 C 2063 2613 2124 2551 2117 2544 C 2113 2540 2104 2543 2095 2550 C 2071 2570 2050 2555 2050 2515 C 2050 2496 2054 2480 2059 2480 C 2063 2480 2106 2433 2153 2376 L 2239 2273 L 2492 2266 C 2899 2256 4152 2238 4157 2243 C 4165 2252 4061 2270 4002 2271 C 3961 2271 3951 2274 3965 2280 C 3976 2285 4001 2289 4020 2290 L 4055 2292 L 4025 2301 C 4009 2305 3955 2313 3905 2318 C 3833 2325 3825 2327 3868 2329 C 3942 2331 3933 2350 3858 2351 L 3795 2353 L 3860 2363 L 3925 2374 L 3860 2381 C 3824 2385 3761 2389 3720 2390 C 3679 2392 3655 2395 3668 2397 C 3700 2403 3695 2420 3660 2420 C 3644 2420 3630 2425 3630 2430 C 3630 2436 3660 2440 3698 2441 C 3735 2442 3776 2445 3789 2449 C 3811 2455 3812 2457 3797 2471 C 3787 2482 3753 2490 3700 2494 C 3616 2502 3599 2519 3673 2522 L 3715 2523 L 3678 2527 C 3657 2529 3640 2535 3640 2541 C 3640 2546 3644 2550 3649 2550 C 3654 2550 3662 2559 3665 2570 C 3670 2586 3681 2590 3718 2591 C 3744 2592 3779 2596 3795 2600 L 3825 2607 L 3797 2618 C 3781 2625 3751 2630 3729 2630 C 3708 2630 3690 2635 3690 2640 C 3690 2646 3721 2650 3763 2651 C 3847 2651 3920 2662 3904 2672 C 3898 2676 3851 2679 3799 2678 C 3747 2678 3655 2678 3594 2679 C 3497 2681 3438 2674 3384 2653 C 3376 2650 3370 2654 3370 2661 C 3370 2684 3317 2751 3303 2746 C 3296 2743 3286 2750 3280 2760 C 3267 2785 3250 2786 3250 2763 C 3249 2747 3248 2747 3234 2765 C 3200 2812 3189 2820 3162 2820 C 3147 2820 3129 2825 3122 2832 C 3113 2841 3105 2841 3086 2831 C 3071 2822 3044 2820 3009 2824 C 2930 2833 2927 2833 2902 2827 C 2870 2819 2860 2811 2860 2794 C 2860 2786 2853 2780 2845 2780 C 2837 2780 2828 2768 2824 2753 C 2815 2708 2811 2700 2801 2700 C 2792 2700 2770 2761 2770 2787 C 2770 2806 2790 2813 2807 2799 C 2820 2788 2824 2789 2835 2804 C 2843 2814 2846 2829 2843 2837 C 2834 2860 2770 2927 2770 2913 z M 3250 2710 C 3250 2705 3245 2700 3239 2700 C 3234 2700 3232 2705 3235 2710 C 3238 2716 3243 2720 3246 2720 C 3248 2720 3250 2716 3250 2710 z M 3315 2709 C 3325 2694 3314 2686 3295 2694 C 3286 2697 3282 2704 3285 2710 C 3293 2723 3307 2723 3315 2709 z M 2465 2610 C 2468 2605 2464 2600 2456 2600 C 2447 2600 2440 2605 2440 2610 C 2440 2616 2444 2620 2449 2620 C 2455 2620 2462 2616 2465 2610 z M 3843 2283 C 3836 2281 3824 2281 3818 2283 C 3811 2286 3816 2288 3830 2288 C 3844 2288 3849 2286 3843 2283 z" stroke-linecap="round" />
</g>
		<g transform="matrix(0.13 0 0 -0.13 -133.07 -146.95)"  >
<path style="stroke: none; stroke-width: 1; stroke-dasharray: none; stroke-linecap: butt; stroke-dashoffset: 0; stroke-linejoin: miter; stroke-miterlimit: 4; fill: rgb(248,248,248); fill-rule: nonzero; opacity: 1;" vector-effect="non-scaling-stroke"  transform=" translate(-1909.44, -2685)" d="M 1873 2694 C 1867 2678 1884 2660 1906 2660 C 1925 2660 1953 2687 1946 2698 C 1935 2716 1880 2713 1873 2694 z" stroke-linecap="round" />
</g>
		<g transform="matrix(0.13 0 0 -0.13 -243.13 -132.25)"  >
<path style="stroke: none; stroke-width: 1; stroke-dasharray: none; stroke-linecap: butt; stroke-dashoffset: 0; stroke-linejoin: miter; stroke-miterlimit: 4; fill: rgb(248,248,248); fill-rule: nonzero; opacity: 1;" vector-effect="non-scaling-stroke"  transform=" translate(-1083.98, -2574.74)" d="M 848 2645 C 790 2612 807 2540 877 2521 C 929 2506 1330 2485 1340 2496 C 1344 2501 1350 2534 1352 2570 L 1355 2635 L 1270 2641 C 1223 2645 1115 2650 1030 2654 C 901 2659 870 2657 848 2645 z" stroke-linecap="round" />
</g>
		<g transform="matrix(0.13 0 0 -0.13 -170.44 -135.79)"  >
<path style="stroke: none; stroke-width: 1; stroke-dasharray: none; stroke-linecap: butt; stroke-dashoffset: 0; stroke-linejoin: miter; stroke-miterlimit: 4; fill: rgb(248,248,248); fill-rule: nonzero; opacity: 1;" vector-effect="non-scaling-stroke"  transform=" translate(-1629.14, -2601.3)" d="M 1506 2607 C 1490 2595 1503 2592 1609 2587 C 1734 2581 1764 2584 1757 2604 C 1751 2621 1530 2624 1506 2607 z" stroke-linecap="round" />
</g>
		<g transform="matrix(0.13 0 0 -0.13 -83.42 -131.62)"  >
<path style="stroke: none; stroke-width: 1; stroke-dasharray: none; stroke-linecap: butt; stroke-dashoffset: 0; stroke-linejoin: miter; stroke-miterlimit: 4; fill: rgb(248,248,248); fill-rule: nonzero; opacity: 1;" vector-effect="non-scaling-stroke"  transform=" translate(-2281.8, -2570)" d="M 2275 2570 C 2278 2565 2283 2560 2286 2560 C 2288 2560 2290 2565 2290 2570 C 2290 2576 2285 2580 2279 2580 C 2274 2580 2272 2576 2275 2570 z" stroke-linecap="round" />
</g>
		<g transform="matrix(0.13 0 0 -0.13 113.12 -129.64)"  >
<path style="stroke: none; stroke-width: 1; stroke-dasharray: none; stroke-linecap: butt; stroke-dashoffset: 0; stroke-linejoin: miter; stroke-miterlimit: 4; fill: rgb(248,248,248); fill-rule: nonzero; opacity: 1;" vector-effect="non-scaling-stroke"  transform=" translate(-3755.86, -2555.19)" d="M 3748 2553 C 3755 2550 3764 2551 3767 2554 C 3771 2557 3765 2560 3754 2559 C 3743 2559 3740 2556 3748 2553 z" stroke-linecap="round" />
</g>
		<g transform="matrix(0.13 0 0 -0.13 -139.63 -103.42)"  >
<path style="stroke: none; stroke-width: 1; stroke-dasharray: none; stroke-linecap: butt; stroke-dashoffset: 0; stroke-linejoin: miter; stroke-miterlimit: 4; fill: rgb(248,248,248); fill-rule: nonzero; opacity: 1;" vector-effect="non-scaling-stroke"  transform=" translate(-1860.22, -2358.54)" d="M 1842 2443 C 1832 2439 1832 2435 1841 2424 C 1850 2413 1849 2410 1839 2410 C 1818 2410 1842 2392 1870 2387 C 1884 2385 1870 2382 1840 2380 C 1810 2379 1772 2374 1755 2370 C 1725 2362 1725 2362 1752 2361 C 1840 2357 1818 2330 1727 2330 C 1641 2330 1624 2322 1644 2295 C 1657 2277 1675 2275 1871 2272 L 2084 2268 L 2065 2296 C 2055 2312 2020 2353 1987 2388 C 1934 2442 1922 2450 1891 2449 C 1871 2449 1849 2446 1842 2443 z" stroke-linecap="round" />
</g>
		<g transform="matrix(0.13 0 0 -0.13 -201.73 -93.29)"  >
<path style="stroke: none; stroke-width: 1; stroke-dasharray: none; stroke-linecap: butt; stroke-dashoffset: 0; stroke-linejoin: miter; stroke-miterlimit: 4; fill: rgb(248,248,248); fill-rule: nonzero; opacity: 1;" vector-effect="non-scaling-stroke"  transform=" translate(-1394.5, -2282.54)" d="M 1290 2287 C 1290 2276 1316 2271 1392 2267 C 1448 2263 1496 2263 1498 2265 C 1501 2268 1497 2276 1490 2285 C 1473 2306 1290 2307 1290 2287 z" stroke-linecap="round" />
</g>
		<g transform="matrix(0.13 0 0 -0.13 -194.32 -42)"  >
<path style="stroke: none; stroke-width: 1; stroke-dasharray: none; stroke-linecap: butt; stroke-dashoffset: 0; stroke-linejoin: miter; stroke-miterlimit: 4; fill: rgb(248,248,248); fill-rule: nonzero; opacity: 1;" vector-effect="non-scaling-stroke"  transform=" translate(-1450.07, -1897.87)" d="M 1346 2206 C 1352 2190 1330 2187 1100 2172 L 975 2163 L 1093 2161 C 1163 2161 1210 2156 1210 2150 C 1210 2145 1191 2140 1168 2140 C 1091 2140 1014 2128 1035 2119 C 1046 2115 1073 2111 1095 2111 C 1150 2109 1120 2090 1063 2090 C 1040 2090 1019 2086 1015 2081 C 1007 2067 1043 2050 1079 2050 C 1096 2050 1110 2046 1110 2040 C 1110 2035 1091 2030 1068 2030 C 1045 2030 1030 2027 1034 2023 C 1051 2006 1122 1990 1190 1989 C 1231 1989 1290 1985 1320 1981 C 1430 1966 1340 1958 1120 1961 C 948 1964 900 1962 900 1953 C 900 1943 942 1940 1078 1940 C 1273 1940 1334 1934 1326 1915 C 1317 1891 1336 1881 1395 1878 C 1428 1877 1461 1870 1468 1863 C 1475 1856 1495 1850 1511 1850 C 1527 1850 1540 1846 1540 1840 C 1540 1834 1502 1829 1448 1829 L 1355 1827 L 1453 1817 C 1555 1807 1585 1790 1500 1790 C 1473 1790 1450 1786 1450 1780 C 1450 1775 1473 1770 1500 1770 C 1555 1770 1565 1757 1523 1742 L 1495 1732 L 1528 1731 C 1548 1730 1560 1725 1559 1718 C 1555 1681 1563 1669 1600 1654 C 1622 1645 1640 1634 1640 1630 C 1640 1620 1562 1610 1484 1610 C 1449 1610 1420 1606 1420 1602 C 1420 1594 1989 1570 1999 1577 C 2007 1583 1976 1629 1810 1855 C 1717 1982 1619 2115 1593 2152 L 1545 2220 L 1443 2220 C 1359 2220 1342 2217 1346 2206 z" stroke-linecap="round" />
</g>
		<g transform="matrix(0.13 0 0 -0.13 -114.33 -30.38)"  >
<path style="stroke: none; stroke-width: 1; stroke-dasharray: none; stroke-linecap: butt; stroke-dashoffset: 0; stroke-linejoin: miter; stroke-miterlimit: 4; fill: rgb(248,248,248); fill-rule: nonzero; opacity: 1;" vector-effect="non-scaling-stroke"  transform=" translate(-2050, -1810.69)" d="M 1700 2214 C 1700 2210 1751 2139 1813 2056 C 1876 1973 1969 1847 2021 1776 C 2288 1411 2288 1411 2324 1404 C 2368 1396 2400 1407 2400 1428 C 2400 1451 2237 1655 1950 1990 C 1887 2064 1817 2146 1796 2173 C 1766 2209 1751 2220 1729 2220 C 1713 2220 1700 2217 1700 2214 z" stroke-linecap="round" />
</g>
		<g transform="matrix(0.13 0 0 -0.13 -82.72 -30.95)"  >
<path style="stroke: none; stroke-width: 1; stroke-dasharray: none; stroke-linecap: butt; stroke-dashoffset: 0; stroke-linejoin: miter; stroke-miterlimit: 4; fill: rgb(248,248,248); fill-rule: nonzero; opacity: 1;" vector-effect="non-scaling-stroke"  transform=" translate(-2287.02, -1815)" d="M 1866 2208 C 1870 2201 1946 2112 2034 2011 C 2123 1909 2242 1772 2298 1706 C 2355 1639 2438 1546 2482 1498 C 2561 1410 2562 1410 2610 1410 C 2664 1410 2710 1426 2710 1445 C 2710 1452 2682 1495 2648 1542 C 2613 1590 2545 1683 2496 1750 C 2377 1914 2161 2192 2142 2208 C 2124 2221 1970 2225 1970 2212 C 1970 2208 1986 2188 2006 2169 C 2060 2118 2372 1760 2480 1625 C 2532 1560 2585 1496 2598 1483 C 2638 1440 2593 1421 2549 1463 C 2536 1475 2417 1611 2285 1765 C 2153 1919 2043 2047 2040 2050 C 2037 2053 2002 2092 1961 2138 C 1920 2183 1881 2220 1873 2220 C 1864 2220 1862 2215 1866 2208 z" stroke-linecap="round" />
</g>
		<g transform="matrix(0.13 0 0 -0.13 -25.95 -31.04)"  >
<path style="stroke: none; stroke-width: 1; stroke-dasharray: none; stroke-linecap: butt; stroke-dashoffset: 0; stroke-linejoin: miter; stroke-miterlimit: 4; fill: rgb(248,248,248); fill-rule: nonzero; opacity: 1;" vector-effect="non-scaling-stroke"  transform=" translate(-2712.83, -1815.69)" d="M 2330 2205 C 2330 2200 2347 2178 2449 2050 C 2509 1974 2760 1639 2829 1542 C 2869 1486 2911 1435 2922 1429 C 2934 1423 2973 1420 3011 1422 C 3132 1429 3135 1408 2943 1796 C 2850 1982 2764 2152 2752 2173 L 2728 2210 L 2529 2210 C 2420 2210 2330 2208 2330 2205 z" stroke-linecap="round" />
</g>
		<g transform="matrix(0.13 0 0 -0.13 83.51 -32.2)"  >
<path style="stroke: none; stroke-width: 1; stroke-dasharray: none; stroke-linecap: butt; stroke-dashoffset: 0; stroke-linejoin: miter; stroke-miterlimit: 4; fill: rgb(248,248,248); fill-rule: nonzero; opacity: 1;" vector-effect="non-scaling-stroke"  transform=" translate(-3533.78, -1824.38)" d="M 3250 2192 C 3250 2186 3259 2154 3270 2119 C 3297 2029 3378 1705 3404 1580 C 3416 1522 3429 1469 3433 1463 C 3444 1446 3597 1446 3630 1463 C 3653 1475 3658 1493 3702 1705 C 3727 1832 3758 1982 3770 2040 C 3782 2098 3799 2153 3808 2163 C 3816 2172 3820 2183 3816 2188 C 3804 2199 3250 2203 3250 2192 z" stroke-linecap="round" />
</g>
		<g transform="matrix(0.13 0 0 -0.13 171.96 -78.63)"  >
<path style="stroke: none; stroke-width: 1; stroke-dasharray: none; stroke-linecap: butt; stroke-dashoffset: 0; stroke-linejoin: miter; stroke-miterlimit: 4; fill: rgb(248,248,248); fill-rule: nonzero; opacity: 1;" vector-effect="non-scaling-stroke"  transform=" translate(-4197.11, -2172.56)" d="M 4057 2183 C 4048 2181 4042 2174 4045 2169 C 4053 2156 4350 2157 4350 2170 C 4350 2176 4304 2180 4233 2180 C 4168 2180 4106 2182 4095 2184 C 4084 2186 4067 2186 4057 2183 z" stroke-linecap="round" />
</g>
		<g transform="matrix(0.13 0 0 -0.13 -296.23 -73.98)"  >
<path style="stroke: none; stroke-width: 1; stroke-dasharray: none; stroke-linecap: butt; stroke-dashoffset: 0; stroke-linejoin: miter; stroke-miterlimit: 4; fill: rgb(248,248,248); fill-rule: nonzero; opacity: 1;" vector-effect="non-scaling-stroke"  transform=" translate(-685.71, -2137.74)" d="M 646 2157 C 613 2133 633 2110 685 2110 C 730 2110 755 2130 734 2150 C 716 2167 665 2171 646 2157 z" stroke-linecap="round" />
</g>
		<g transform="matrix(0.13 0 0 -0.13 238.11 -77.45)"  >
<path style="stroke: none; stroke-width: 1; stroke-dasharray: none; stroke-linecap: butt; stroke-dashoffset: 0; stroke-linejoin: miter; stroke-miterlimit: 4; fill: rgb(248,248,248); fill-rule: nonzero; opacity: 1;" vector-effect="non-scaling-stroke"  transform=" translate(-4693.27, -2163.75)" d="M 4622 2163 C 4659 2161 4722 2161 4762 2163 C 4802 2164 4772 2166 4695 2166 C 4618 2166 4585 2165 4622 2163 z" stroke-linecap="round" />
</g>
		<g transform="matrix(0.13 0 0 -0.13 -283.66 -72.55)"  >
<path style="stroke: none; stroke-width: 1; stroke-dasharray: none; stroke-linecap: butt; stroke-dashoffset: 0; stroke-linejoin: miter; stroke-miterlimit: 4; fill: rgb(248,248,248); fill-rule: nonzero; opacity: 1;" vector-effect="non-scaling-stroke"  transform=" translate(-780, -2127)" d="M 770 2131 C 770 2125 775 2118 780 2115 C 786 2112 790 2116 790 2124 C 790 2133 786 2140 780 2140 C 775 2140 770 2136 770 2131 z" stroke-linecap="round" />
</g>
		<g transform="matrix(0.13 0 0 -0.13 -274.99 -45.98)"  >
<path style="stroke: none; stroke-width: 1; stroke-dasharray: none; stroke-linecap: butt; stroke-dashoffset: 0; stroke-linejoin: miter; stroke-miterlimit: 4; fill: rgb(248,248,248); fill-rule: nonzero; opacity: 1;" vector-effect="non-scaling-stroke"  transform=" translate(-845, -1927.7)" d="M 830 1930 C 830 1924 837 1920 845 1920 C 853 1920 860 1922 860 1924 C 860 1926 853 1930 845 1934 C 837 1937 830 1935 830 1930 z" stroke-linecap="round" />
</g>
		<g transform="matrix(0.13 0 0 -0.13 -198.78 -26.92)"  >
<path style="stroke: none; stroke-width: 1; stroke-dasharray: none; stroke-linecap: butt; stroke-dashoffset: 0; stroke-linejoin: miter; stroke-miterlimit: 4; fill: rgb(248,248,248); fill-rule: nonzero; opacity: 1;" vector-effect="non-scaling-stroke"  transform=" translate(-1416.61, -1784.75)" d="M 1403 1783 C 1412 1781 1426 1781 1433 1783 C 1439 1786 1432 1788 1415 1788 C 1399 1788 1393 1786 1403 1783 z" stroke-linecap="round" />
</g>
		<g transform="matrix(0.13 0 0 -0.13 -126.01 5.02)"  >
<path style="stroke: none; stroke-width: 1; stroke-dasharray: none; stroke-linecap: butt; stroke-dashoffset: 0; stroke-linejoin: miter; stroke-miterlimit: 4; fill: rgb(248,248,248); fill-rule: nonzero; opacity: 1;" vector-effect="non-scaling-stroke"  transform=" translate(-1962.39, -1545.26)" d="M 1940 1550 C 1872 1543 1887 1538 1977 1536 C 2006 1535 2029 1539 2027 1544 C 2023 1557 2016 1557 1940 1550 z" stroke-linecap="round" />
</g>
		<g transform="matrix(0.13 0 0 -0.13 -123.43 9.71)"  >
<path style="stroke: none; stroke-width: 1; stroke-dasharray: none; stroke-linecap: butt; stroke-dashoffset: 0; stroke-linejoin: miter; stroke-miterlimit: 4; fill: rgb(248,248,248); fill-rule: nonzero; opacity: 1;" vector-effect="non-scaling-stroke"  transform=" translate(-1981.69, -1510.01)" d="M 1935 1509 C 1991 1498 2050 1498 2050 1510 C 2050 1516 2018 1520 1973 1519 C 1904 1518 1900 1517 1935 1509 z" stroke-linecap="round" />
</g>
		<g transform="matrix(0.13 0 0 -0.13 -119.63 13.72)"  >
<path style="stroke: none; stroke-width: 1; stroke-dasharray: none; stroke-linecap: butt; stroke-dashoffset: 0; stroke-linejoin: miter; stroke-miterlimit: 4; fill: rgb(248,248,248); fill-rule: nonzero; opacity: 1;" vector-effect="non-scaling-stroke"  transform=" translate(-2010.22, -1480)" d="M 2000 1480 L 1945 1473 L 2013 1472 C 2056 1471 2079 1474 2075 1480 C 2072 1486 2066 1489 2062 1488 C 2058 1487 2030 1484 2000 1480 z" stroke-linecap="round" />
</g>
		<g transform="matrix(0.13 0 0 -0.13 -117.32 19.6)"  >
<path style="stroke: none; stroke-width: 1; stroke-dasharray: none; stroke-linecap: butt; stroke-dashoffset: 0; stroke-linejoin: miter; stroke-miterlimit: 4; fill: rgb(248,248,248); fill-rule: nonzero; opacity: 1;" vector-effect="non-scaling-stroke"  transform=" translate(-2027.51, -1435.89)" d="M 2005 1440 L 1955 1433 L 2018 1430 C 2052 1428 2085 1427 2090 1426 C 2096 1425 2100 1430 2100 1435 C 2101 1448 2069 1449 2005 1440 z" stroke-linecap="round" />
</g>
		<g transform="matrix(0.13 0 0 -0.13 40.01 91.71)"  >
<path style="stroke: none; stroke-width: 1; stroke-dasharray: none; stroke-linecap: butt; stroke-dashoffset: 0; stroke-linejoin: miter; stroke-miterlimit: 4; fill: rgb(248,248,248); fill-rule: nonzero; opacity: 1;" vector-effect="non-scaling-stroke"  transform=" translate(-3207.5, -895.02)" d="M 4145 1424 C 4134 1422 3990 1414 3825 1405 C 3660 1397 3462 1385 3385 1380 C 3308 1375 3067 1361 2850 1349 L 2455 1327 L 2405 1299 C 2378 1284 2322 1255 2282 1234 C 2207 1195 2160 1152 2160 1121 C 2160 1112 2174 1091 2191 1074 L 2221 1045 L 3353 1040 C 3976 1037 4491 1031 4498 1027 C 4517 1014 4512 983 4488 966 C 4471 954 4439 950 4353 950 C 4232 950 4213 941 4280 914 C 4348 887 4390 821 4376 764 C 4368 733 4296 654 4259 634 C 4243 626 4198 615 4158 609 C 4092 599 4080 600 4025 621 C 3985 635 3949 659 3918 690 C 3877 730 3870 743 3870 776 C 3870 831 3901 875 3960 905 C 3988 919 4010 936 4007 943 C 4001 962 2550 965 2550 946 C 2550 939 2570 925 2594 916 C 2619 906 2655 881 2674 859 C 2765 759 2681 636 2505 611 C 2386 594 2283 635 2231 720 C 2190 788 2214 858 2294 905 C 2319 920 2340 935 2340 939 C 2340 943 2305 952 2263 958 C 2117 981 2030 1047 2030 1135 C 2030 1165 2039 1179 2078 1218 C 2104 1244 2153 1279 2188 1295 C 2222 1311 2250 1327 2250 1331 C 2250 1335 2238 1341 2223 1345 C 2207 1348 2179 1364 2160 1379 C 2128 1404 2118 1407 2070 1403 C 1994 1397 1979 1390 2010 1378 L 2035 1368 L 2010 1357 C 1994 1350 1864 1344 1665 1340 L 1345 1334 L 1615 1331 C 1894 1328 1978 1320 1887 1305 C 1861 1301 1837 1294 1834 1289 C 1831 1284 1814 1280 1795 1280 C 1773 1280 1758 1274 1751 1263 C 1744 1249 1722 1244 1653 1239 L 1565 1233 L 1640 1231 C 1736 1229 1716 1211 1615 1209 C 1577 1208 1559 1205 1575 1203 C 1616 1197 1632 1180 1596 1180 C 1581 1180 1571 1176 1575 1171 C 1578 1166 1571 1159 1560 1155 C 1531 1146 1535 1130 1568 1130 C 1583 1130 1602 1125 1610 1120 C 1621 1113 1613 1110 1580 1109 C 1555 1108 1544 1106 1555 1103 C 1634 1085 1653 1078 1640 1070 C 1632 1065 1657 1059 1704 1055 C 1746 1051 1783 1044 1786 1039 C 1789 1034 1802 1030 1816 1030 C 1860 1030 1841 1011 1793 1008 L 1745 1005 L 1785 997 C 1807 992 1832 986 1840 982 C 1848 979 1868 976 1884 976 C 1900 975 1915 970 1917 964 C 1919 957 1891 953 1833 952 C 1585 950 1230 937 1230 930 C 1230 924 1628 910 1920 905 C 1966 905 2020 887 2020 873 C 2020 868 2042 853 2069 837 C 2100 820 2118 803 2118 792 C 2118 783 2119 768 2121 760 C 2124 748 2117 746 2090 748 C 2071 750 2049 757 2042 762 C 2033 770 2025 768 2015 754 C 2001 737 1999 737 1988 751 C 1966 778 1926 782 1906 759 C 1890 739 1880 738 1725 742 C 1612 744 1557 741 1550 734 C 1543 727 1542 720 1547 717 C 1552 714 1659 708 1785 705 C 1911 702 2016 698 2019 696 C 2022 694 2054 694 2088 695 C 2135 696 2158 692 2173 680 C 2185 671 2209 658 2225 652 C 2250 643 2251 641 2233 641 C 2218 640 2212 634 2213 620 C 2214 609 2220 600 2227 600 C 2240 600 2245 582 2241 541 C 2240 528 2246 510 2254 501 C 2262 492 2269 481 2269 475 C 2270 470 2276 465 2283 465 C 2290 465 2294 475 2292 488 C 2289 509 2300 519 2334 524 C 2358 527 2362 536 2345 550 C 2324 567 2326 580 2349 580 C 2361 580 2383 560 2405 529 C 2439 484 2441 476 2430 455 C 2409 416 2424 382 2471 369 C 2505 358 2513 359 2527 372 C 2547 392 2554 458 2539 476 C 2520 499 2536 505 2611 505 C 2675 505 2681 507 2676 524 C 2672 538 2674 540 2683 531 C 2689 525 2702 520 2712 520 C 2723 520 2730 513 2730 501 C 2730 491 2737 477 2746 470 C 2754 463 2760 447 2758 435 C 2752 389 2769 384 2917 387 C 2992 388 3059 385 3064 381 C 3082 366 3163 375 3193 394 C 3209 405 3220 421 3220 436 C 3220 466 3237 476 3245 450 C 3248 439 3257 430 3265 430 C 3272 430 3285 427 3293 424 C 3303 421 3315 430 3326 449 C 3350 489 3371 488 3443 445 C 3513 403 3596 394 3631 426 C 3646 440 3653 441 3659 432 C 3664 423 3676 421 3694 426 C 3718 432 3720 436 3714 466 C 3708 500 3717 509 3737 489 C 3745 481 3753 485 3765 504 C 3789 540 3807 536 3815 493 C 3823 448 3840 423 3877 400 C 3912 379 4006 365 4015 380 C 4019 386 4031 388 4043 384 C 4055 380 4100 377 4143 377 C 4221 378 4250 389 4250 417 C 4250 428 4254 428 4271 419 C 4293 408 4293 409 4285 461 C 4277 517 4277 597 4286 612 C 4289 616 4304 613 4320 605 C 4359 585 4381 586 4387 608 C 4389 618 4401 630 4413 635 C 4425 641 4437 656 4439 670 C 4443 700 4456 710 4491 710 C 4521 710 4548 686 4530 675 C 4513 665 4519 624 4540 605 C 4558 589 4563 588 4585 600 C 4616 617 4619 659 4590 667 C 4562 674 4565 705 4596 718 C 4614 727 4620 735 4615 748 C 4611 763 4618 769 4651 779 C 4680 788 4689 794 4680 800 C 4673 805 4708 811 4764 815 C 4817 819 4863 826 4866 831 C 4869 836 4882 837 4895 834 C 4907 831 4921 833 4924 839 C 4928 844 4957 854 4990 861 C 5023 867 5050 876 5050 881 C 5050 885 5026 890 4998 892 C 4929 896 4930 914 5000 920 C 5086 928 5036 941 4887 949 C 4817 954 4758 959 4755 962 C 4748 969 4919 980 5065 981 L 5185 983 L 5025 991 C 4937 996 4845 1003 4820 1006 C 4780 1012 4778 1014 4800 1021 C 4814 1025 4818 1028 4810 1029 C 4768 1032 4719 1052 4723 1065 C 4727 1074 4707 1081 4647 1090 C 4553 1105 4516 1116 4524 1129 C 4533 1142 4477 1150 4366 1150 C 4311 1150 4258 1155 4250 1160 C 4220 1179 4257 1189 4365 1193 L 4475 1196 L 4358 1198 C 4242 1200 4240 1200 4234 1225 C 4223 1269 4233 1277 4312 1283 C 4383 1289 4479 1325 4449 1334 C 4441 1336 4419 1342 4400 1347 C 4367 1356 4369 1357 4444 1368 C 4488 1375 4525 1382 4528 1384 C 4533 1389 4456 1398 4338 1406 C 4284 1409 4238 1416 4234 1421 C 4229 1430 4188 1431 4145 1424 z M 4287 1354 C 4284 1351 4275 1350 4268 1353 C 4260 1356 4263 1359 4274 1359 C 4285 1360 4291 1357 4287 1354 z M 4347 1354 C 4344 1351 4335 1350 4328 1353 C 4320 1356 4323 1359 4334 1359 C 4345 1360 4351 1357 4347 1354 z M 2780 585 C 2780 577 2776 569 2771 566 C 2759 558 2737 587 2744 599 C 2753 613 2780 601 2780 585 z M 2740 540 C 2740 535 2738 530 2736 530 C 2733 530 2728 535 2725 540 C 2722 546 2724 550 2729 550 C 2735 550 2740 546 2740 540 z M 4261 470 C 4271 464 4280 455 4280 450 C 4280 435 4250 438 4249 453 C 4249 463 4247 463 4243 453 C 4237 436 4210 436 4210 453 C 4210 480 4229 487 4261 470 z M 2888 421 C 2891 413 2887 409 2879 412 C 2872 414 2864 422 2862 429 C 2859 437 2863 441 2871 438 C 2878 436 2886 428 2888 421 z M 4029 414 C 4032 398 4030 397 4016 409 C 3997 425 3995 443 4013 438 C 4019 435 4027 425 4029 414 z" stroke-linecap="round" />
</g>
		<g transform="matrix(0.13 0 0 -0.13 -255.8 62.29)"  >
<path style="stroke: none; stroke-width: 1; stroke-dasharray: none; stroke-linecap: butt; stroke-dashoffset: 0; stroke-linejoin: miter; stroke-miterlimit: 4; fill: rgb(248,248,248); fill-rule: nonzero; opacity: 1;" vector-effect="non-scaling-stroke"  transform=" translate(-988.97, -1115.71)" d="M 960 1114 C 960 1103 968 1100 987 1102 C 1026 1106 1029 1130 991 1130 C 970 1130 960 1125 960 1114 z" stroke-linecap="round" />
</g>
		<g transform="matrix(0.13 0 0 -0.13 -59.93 105.18)"  >
<path style="stroke: none; stroke-width: 1; stroke-dasharray: none; stroke-linecap: butt; stroke-dashoffset: 0; stroke-linejoin: miter; stroke-miterlimit: 4; fill: rgb(248,248,248); fill-rule: nonzero; opacity: 1;" vector-effect="non-scaling-stroke"  transform=" translate(-2457.94, -794)" d="M 2540 842 C 2540 826 2531 802 2521 789 C 2505 770 2492 765 2452 765 C 2395 765 2365 785 2355 832 C 2350 853 2344 860 2333 856 C 2325 853 2317 850 2315 850 C 2300 850 2291 808 2301 787 C 2334 714 2529 696 2598 760 C 2637 797 2620 847 2563 864 C 2543 871 2540 868 2540 842 z" stroke-linecap="round" />
</g>
		<g transform="matrix(0.13 0 0 -0.13 161.03 105.63)"  >
<path style="stroke: none; stroke-width: 1; stroke-dasharray: none; stroke-linecap: butt; stroke-dashoffset: 0; stroke-linejoin: miter; stroke-miterlimit: 4; fill: rgb(248,248,248); fill-rule: nonzero; opacity: 1;" vector-effect="non-scaling-stroke"  transform=" translate(-4115.16, -790.63)" d="M 3976 833 C 3962 819 3950 803 3950 798 C 3950 776 4006 740 4057 729 C 4188 699 4332 780 4262 843 C 4235 868 4223 864 4210 825 C 4182 740 4020 736 4020 820 C 4020 860 4007 864 3976 833 z" stroke-linecap="round" />
</g>
		<g transform="matrix(0.13 0 0 -0.13 -110.57 103.05)"  >
<path style="stroke: none; stroke-width: 1; stroke-dasharray: none; stroke-linecap: butt; stroke-dashoffset: 0; stroke-linejoin: miter; stroke-miterlimit: 4; fill: rgb(248,248,248); fill-rule: nonzero; opacity: 1;" vector-effect="non-scaling-stroke"  transform=" translate(-2078.2, -810)" d="M 2070 810 C 2070 805 2075 800 2081 800 C 2086 800 2088 805 2085 810 C 2082 816 2077 820 2074 820 C 2072 820 2070 816 2070 810 z" stroke-linecap="round" />
</g>
		<g transform="matrix(0.13 0 0 -0.13 -150.32 144.15)"  >
<path style="stroke: none; stroke-width: 1; stroke-dasharray: none; stroke-linecap: butt; stroke-dashoffset: 0; stroke-linejoin: miter; stroke-miterlimit: 4; fill: rgb(248,248,248); fill-rule: nonzero; opacity: 1;" vector-effect="non-scaling-stroke"  transform=" translate(-1780.06, -501.74)" d="M 1747 523 C 1734 511 1740 491 1760 480 C 1785 467 1820 476 1820 495 C 1820 519 1764 541 1747 523 z" stroke-linecap="round" />
</g>
		<g transform="matrix(0.13 0 0 -0.13 -101.2 143.09)"  >
<path style="stroke: none; stroke-width: 1; stroke-dasharray: none; stroke-linecap: butt; stroke-dashoffset: 0; stroke-linejoin: miter; stroke-miterlimit: 4; fill: rgb(248,248,248); fill-rule: nonzero; opacity: 1;" vector-effect="non-scaling-stroke"  transform=" translate(-2148.47, -509.7)" d="M 2110 516 C 2110 502 2131 490 2153 490 C 2175 490 2193 508 2185 520 C 2179 529 2176 529 2169 519 C 2163 508 2158 508 2148 518 C 2132 534 2110 533 2110 516 z" stroke-linecap="round" />
</g>
		<g transform="matrix(0.13 0 0 -0.13 248.67 143.72)"  >
<path style="stroke: none; stroke-width: 1; stroke-dasharray: none; stroke-linecap: butt; stroke-dashoffset: 0; stroke-linejoin: miter; stroke-miterlimit: 4; fill: rgb(248,248,248); fill-rule: nonzero; opacity: 1;" vector-effect="non-scaling-stroke"  transform=" translate(-4772.5, -505)" d="M 4750 505 C 4750 494 4757 490 4773 492 C 4785 494 4795 500 4795 505 C 4795 511 4785 516 4773 518 C 4757 520 4750 516 4750 505 z" stroke-linecap="round" />
</g>
		<g transform="matrix(0.13 0 0 -0.13 -171.94 144.38)"  >
<path style="stroke: none; stroke-width: 1; stroke-dasharray: none; stroke-linecap: butt; stroke-dashoffset: 0; stroke-linejoin: miter; stroke-miterlimit: 4; fill: rgb(248,248,248); fill-rule: nonzero; opacity: 1;" vector-effect="non-scaling-stroke"  transform=" translate(-1617.88, -500)" d="M 1600 500 C 1600 495 1609 490 1621 490 C 1632 490 1638 495 1635 500 C 1632 506 1622 510 1614 510 C 1606 510 1600 506 1600 500 z" stroke-linecap="round" />
</g>
		<g transform="matrix(0.13 0 0 -0.13 -76.64 155.23)"  >
<path style="stroke: none; stroke-width: 1; stroke-dasharray: none; stroke-linecap: butt; stroke-dashoffset: 0; stroke-linejoin: miter; stroke-miterlimit: 4; fill: rgb(248,248,248); fill-rule: nonzero; opacity: 1;" vector-effect="non-scaling-stroke"  transform=" translate(-2332.63, -418.65)" d="M 2297 432 C 2271 403 2292 380 2336 390 C 2379 400 2384 404 2377 425 C 2370 442 2350 446 2350 430 C 2350 425 2345 420 2339 420 C 2333 420 2330 427 2334 435 C 2342 456 2317 454 2297 432 z" stroke-linecap="round" />
</g>
		<g transform="matrix(0.13 0 0 -0.13 -132.07 160.06)"  >
<path style="stroke: none; stroke-width: 1; stroke-dasharray: none; stroke-linecap: butt; stroke-dashoffset: 0; stroke-linejoin: miter; stroke-miterlimit: 4; fill: rgb(248,248,248); fill-rule: nonzero; opacity: 1;" vector-effect="non-scaling-stroke"  transform=" translate(-1916.95, -382.4)" d="M 1885 391 C 1877 377 1915 359 1934 366 C 1943 369 1950 378 1950 386 C 1950 402 1895 406 1885 391 z" stroke-linecap="round" />
</g>
		<g transform="matrix(0.13 0 0 -0.13 -43.39 174.33)"  >
<path style="stroke: none; stroke-width: 1; stroke-dasharray: none; stroke-linecap: butt; stroke-dashoffset: 0; stroke-linejoin: miter; stroke-miterlimit: 4; fill: rgb(248,248,248); fill-rule: nonzero; opacity: 1;" vector-effect="non-scaling-stroke"  transform=" translate(-2582.05, -275.42)" d="M 2556 291 C 2553 286 2560 280 2571 277 C 2584 273 2589 267 2585 259 C 2580 252 2582 249 2591 252 C 2599 255 2606 266 2608 278 C 2611 296 2606 300 2586 300 C 2572 300 2559 296 2556 291 z" stroke-linecap="round" />
</g>
</g>
</g>
<g transform="matrix(1 0 0 1 540 364.21)" style="" id="dd5dc09f-1101-48e3-99ee-e0b99bf6ff4d"  >
		<text xml:space="preserve" font-family="Alegreya" font-size="119" font-style="normal" font-weight="700" style="stroke: none; stroke-width: 1; stroke-dasharray: none; stroke-linecap: butt; stroke-dashoffset: 0; stroke-linejoin: miter; stroke-miterlimit: 4; fill: rgb(255,255,255); fill-rule: nonzero; opacity: 1; white-space: pre;" ><tspan x="-217.29" y="37.38" >A</tspan><tspan x="-134.71" y="37.38" >l</tspan><tspan x="-94.49" y="37.38" >l</tspan><tspan x="-54.26" y="37.38" >M</tspan><tspan x="53.55" y="37.38" >a</tspan><tspan x="119.95" y="37.38" >r</tspan><tspan x="177.79" y="37.38" >t</tspan></text>
</g>
</svg>